# xmcd CD database file
# Copyright (C) 1993-1998 Ti Kan
#
# Track frame offsets:
#  150
#  18162
#  32180
#  48150
#  65050
#  86800
#  106485
#  132165
#  150707
#  163292
#  181665
#
# Disc length: 2727 seconds
#
# Revision: 1
# Processed by: cddbd v1.4b41PL1 Copyright (c) Steve Scherf et al.
# Submitted via: CDWizzard Release:4.35
#
DISCID=8d0aa50b
DTITLE=Truth - Truth Live
DYEAR=1900
DGENRE=
TTITLE0=Redeemed
TTITLE1=Fighting For Your Life
TTITLE2=Stumblin' Block
TTITLE3=I Am Not Ashamed
TTITLE4=Where You Are
TTITLE5=Stand In Awe
TTITLE6=You'll Still Be Lord Of All/Jesus Never Fails
TTITLE7=Friends In High Places
TTITLE8=God Ain't Never Had A Grandchild
TTITLE9=Keep Believing
TTITLE10=There Is A Hope
EXTD=
EXTT0=
EXTT1=
EXTT2=
EXTT3=
EXTT4=
EXTT5=
EXTT6=
EXTT7=
EXTT8=
EXTT9=
EXTT10=
PLAYORDER=
